<svg id="SvgjsSvg1011" width="288" height="288" xmlns="http://www.w3.org/2000/svg" version="1.1" xmlns:xlink="http://www.w3.org/1999/xlink" xmlns:svgjs="http://svgjs.com/svgjs"><defs id="SvgjsDefs1012"></defs><g id="SvgjsG1013"><svg xmlns="http://www.w3.org/2000/svg" enable-background="new 0 0 64 64" viewBox="0 0 64 64" width="288" height="288"><path fill="#ffffff" d="M16.34,64c-0.23,0-0.46-0.05-0.67-0.17c-0.62-0.33-0.91-1.07-0.68-1.74l9.62-27.68h-9.54
		c-0.47,0-0.9-0.23-1.17-0.61c-0.27-0.38-0.33-0.87-0.18-1.31L25.05,0.95C25.25,0.38,25.79,0,26.4,0h22.54
		c0.53,0,1.02,0.3,1.27,0.77c0.25,0.47,0.21,1.04-0.09,1.48l-14.16,20.4h9.16c0.54,0,1.04,0.31,1.28,0.79
		c0.24,0.49,0.19,1.07-0.13,1.5L17.49,63.43C17.21,63.8,16.78,64,16.34,64z M17.11,31.55h9.52c0.46,0,0.9,0.22,1.17,0.6
		c0.27,0.38,0.34,0.86,0.19,1.3L20.73,54.3l21.53-28.79h-9.04c-0.53,0-1.02-0.3-1.27-0.77c-0.25-0.47-0.21-1.04,0.09-1.48
		l14.16-20.4H27.4L17.11,31.55z" class="svgShape colorf6b64e-0 selectable"></path></svg></g></svg>