<svg id="SvgjsSvg1016" width="288" height="288" xmlns="http://www.w3.org/2000/svg" version="1.1" xmlns:xlink="http://www.w3.org/1999/xlink" xmlns:svgjs="http://svgjs.com/svgjs"><defs id="SvgjsDefs1017"></defs><g id="SvgjsG1018"><svg xmlns="http://www.w3.org/2000/svg" enable-background="new 0 0 24 24" viewBox="0 0 24 24" width="288" height="288"><path d="M2.617188 14.921875c.374023.153809.803711.068848 1.089844-.216797L5 13.412109l1.292969 1.292969C6.484375 14.896484 6.739746 14.998047 7 14.998047c.128906 0 .258789-.024902.382812-.076172C7.756348 14.76709 8 14.402344 8 13.998047V10c0-.552246-.447754-1-1-1s-1 .447754-1 1v1.583984l-.292969-.292969c-.390625-.390625-1.023438-.390625-1.414062 0L4 11.583984V10c0-.552246-.447754-1-1-1s-1 .447754-1 1v3.998047C2 14.402344 2.243652 14.76709 2.617188 14.921875zM10 9c-.552246 0-1 .447754-1 1v3.998047c0 .404297.243652.769043.617188.923828.373047.153809.803223.068848 1.089844-.216797L12 13.412109l1.292969 1.292969C13.484375 14.896484 13.739746 14.998047 14 14.998047c.128906 0 .258789-.024902.382812-.076172C14.756348 14.76709 15 14.402344 15 13.998047V10c0-.552246-.447754-1-1-1s-1 .447754-1 1v1.583984l-.292969-.292969c-.390625-.390625-1.023438-.390625-1.414062 0L11 11.583984V10C11 9.447754 10.552246 9 10 9zM20 10v1.583984l-.292969-.292969c-.390625-.390625-1.023438-.390625-1.414062 0L18 11.583984V10c0-.552246-.447754-1-1-1s-1 .447754-1 1v3.998047c0 .404297.243652.769043.617188.923828.373535.153809.803223.068848 1.089844-.216797L19 13.412109l1.292969 1.292969C20.484375 14.896484 20.739746 14.998047 21 14.998047c.128906 0 .258789-.024902.382812-.076172C21.756348 14.76709 22 14.402344 22 13.998047V10c0-.552246-.447754-1-1-1S20 9.447754 20 10zM5.351562 16.444336c-.307129-.459961-.927734-.583008-1.387207-.275879-.458984.307129-.58252.927734-.275879 1.387207 1.694824 2.535645 4.397461 4.139648 7.390137 4.397949.034119.003845.068237.001831.102356.005127.003357.000061.006592.001221.009949.001221.00116 0 .002319-.000488.003479-.000488C11.462952 21.984924 11.731445 22 12 22c.307129 0 .614258-.011719.895996-.043945 3.018066-.260742 5.720703-1.864746 7.415527-4.400391.306641-.459473.183105-1.080078-.275879-1.387207-.459961-.306641-1.080078-.184082-1.387207.275879-1.10675 1.656189-2.753845 2.803406-4.644897 3.287842.588806-.692444 1.108704-1.446899 1.535034-2.27417.253418-.490723.060547-1.09375-.430664-1.34668-.490234-.25293-1.094238-.060547-1.34668.430664-.468872.90918-1.061035 1.722229-1.76123 2.431763-.699829-.709045-1.292175-1.522278-1.76123-2.431763-.252441-.491211-.855469-.683594-1.34668-.430664s-.684082.855957-.430664 1.34668c.427063.828613.947998 1.584167 1.53772 2.277222C8.114868 19.2547 6.461609 18.105469 5.351562 16.444336zM5.351562 7.555664c1.108276-1.658813 2.758484-2.807068 4.65271-3.290039-.594299.695068-1.117126 1.4505-1.542847 2.276367-.253418.490723-.060547 1.09375.430664 1.34668C9.038574 7.964355 9.194824 8 9.349121 8c.362793 0 .712402-.197266.889648-.541992.46344-.898682 1.053223-1.706665 1.761536-2.422546.70343.710571 1.295837 1.520691 1.760925 2.422546C13.938477 7.802734 14.288086 8 14.650879 8c.154297 0 .310547-.035645.457031-.111328.491211-.25293.684082-.855957.430664-1.34668-.427063-.82843-.951294-1.58551-1.544189-2.279053 1.88678.479187 3.542725 1.629333 4.654053 3.292725C18.841309 7.844238 19.158203 8 19.480957 8c.190918 0 .383789-.054688.554688-.168457.458984-.307129.58252-.927734.275879-1.387207-1.694824-2.536133-4.397949-4.140137-7.390137-4.397949-.614258-.069336-1.253906-.066895-1.817383-.002441-.032898.002808-.064453.010742-.097229.013916-.002869.000488-.005615.000671-.008484.001221C8.023926 2.347534 5.36322 3.938232 3.688477 6.444336 3.381836 6.903809 3.505371 7.524414 3.964355 7.831543 4.424805 8.137207 5.044434 8.014648 5.351562 7.555664z" fill="#ffffff" class="svgShape color000000-0 selectable"></path></svg></g></svg>